<svg width="278" height="223" viewBox="0 0 278 223" fill="none" xmlns="http://www.w3.org/2000/svg">
<path d="M0 40C0 17.9086 17.9086 0 40 0H237C259.091 0 277 17.9086 277 40V182C277 204.091 259.091 222 237 222H40C17.9086 222 0 204.091 0 182V40Z" fill="#E95F8B"/>
<rect x="1" y="1" width="275" height="124" rx="39" fill="#FF9ABA" stroke="#FFD7D7" stroke-width="2"/>
<path d="M153.729 198.879C132.529 191.279 135.896 211.713 140.229 222.379H242.229C264.629 222.379 275.229 199.379 277.229 188.379V147.379C273.229 142.379 265.029 136.379 264.229 152.379C263.429 168.379 249.896 167.046 243.229 164.379C196.729 121.879 190.729 157.879 187.229 164.379C183.729 170.879 180.229 208.379 153.729 198.879Z" fill="#FF83AA"/>
</svg>
